<svg width="100" height="100" viewBox="0 0 100 100" fill="none" xmlns="http://www.w3.org/2000/svg">
<path d="M62.7594 88.1257H25.5927C22.0968 88.1146 18.748 86.7182 16.2799 84.2423C13.8119 81.7665 12.426 78.4132 12.426 74.9173V37.8757C12.437 34.387 13.8277 31.0444 16.2946 28.5776C18.7614 26.1107 22.1041 24.72 25.5927 24.709H36.7177C37.2702 24.709 37.8001 24.9285 38.1908 25.3192C38.5815 25.7099 38.801 26.2398 38.801 26.7923C38.801 27.3449 38.5815 27.8748 38.1908 28.2655C37.8001 28.6562 37.2702 28.8757 36.7177 28.8757H25.5927C23.2091 28.8866 20.9263 29.8383 19.2408 31.5238C17.5554 33.2093 16.6037 35.4921 16.5927 37.8757V74.9173C16.5927 77.3081 17.5395 79.6016 19.2262 81.2961C20.9128 82.9905 23.2019 83.948 25.5927 83.959H62.7594C63.9467 83.959 65.1225 83.7251 66.2195 83.2707C67.3164 82.8164 68.3132 82.1503 69.1528 81.3107C69.9924 80.4712 70.6584 79.4744 71.1128 78.3774C71.5672 77.2804 71.801 76.1047 71.801 74.9173V67.5007C71.801 66.9481 72.0205 66.4182 72.4112 66.0275C72.8019 65.6368 73.3318 65.4173 73.8844 65.4173C74.4369 65.4173 74.9668 65.6368 75.3575 66.0275C75.7482 66.4182 75.9677 66.9481 75.9677 67.5007V74.9173C75.9677 78.4204 74.5761 81.78 72.0991 84.257C69.622 86.7341 66.2624 88.1257 62.7594 88.1257Z" fill="#FF4343"/>
<path d="M73.7176 39.3756C73.1792 39.3761 72.6616 39.1681 72.2732 38.7952C71.8848 38.4223 71.6558 37.9136 71.6343 37.3756C71.5513 35.8318 71.0627 34.3371 70.2176 33.0423C69.5374 31.9667 68.6266 31.0559 67.551 30.3756C66.3 29.5675 64.8687 29.0808 63.3843 28.959C63.1106 28.9483 62.8418 28.8837 62.5931 28.7689C62.3444 28.6542 62.1208 28.4916 61.9351 28.2903C61.7493 28.0891 61.605 27.8532 61.5105 27.5962C61.416 27.3391 61.3731 27.066 61.3843 26.7923C61.3725 26.2647 61.5656 25.7529 61.9229 25.3645C62.2803 24.9761 62.7742 24.7412 63.301 24.709C65.6145 24.8121 67.8585 25.5313 69.801 26.7923C71.383 27.7885 72.7214 29.127 73.7176 30.709C74.9786 32.6514 75.6979 34.8954 75.801 37.209C75.8121 37.4826 75.7692 37.7558 75.6747 38.0128C75.5802 38.2699 75.436 38.5058 75.2502 38.707C75.0644 38.9082 74.8408 39.0709 74.5922 39.1856C74.3435 39.3003 74.0746 39.3649 73.801 39.3756H73.7176Z" fill="#FF4343"/>
<path d="M54.4261 58.5006H44.1344C43.5819 58.5006 43.052 58.2811 42.6613 57.8904C42.2706 57.4997 42.0511 56.9698 42.0511 56.4172V45.9172C42.0478 45.3736 42.2571 44.8503 42.6344 44.4589L63.4677 23.6256C63.8572 23.2438 64.3808 23.03 64.9261 23.03C65.4714 23.03 65.995 23.2438 66.3844 23.6256L70.0094 27.2506C70.3911 27.64 70.6049 28.1636 70.6049 28.7089C70.6049 29.2542 70.3911 29.7778 70.0094 30.1672C69.8157 30.3625 69.5853 30.5175 69.3314 30.6233C69.0776 30.729 68.8053 30.7835 68.5302 30.7835C68.2552 30.7835 67.9829 30.729 67.729 30.6233C67.4752 30.5175 67.2447 30.3625 67.0511 30.1672L64.9261 28.0839L46.0927 46.7922V54.3339H53.6344L72.5094 35.4172L70.3844 33.2922C70.0027 32.9028 69.7889 32.3792 69.7889 31.8339C69.7889 31.2886 70.0027 30.765 70.3844 30.3756C70.5781 30.1803 70.8085 30.0253 71.0624 29.9195C71.3162 29.8138 71.5885 29.7593 71.8636 29.7593C72.1386 29.7593 72.4109 29.8138 72.6648 29.9195C72.9186 30.0253 73.1491 30.1803 73.3427 30.3756L76.9261 33.9589C77.1213 34.1526 77.2763 34.383 77.3821 34.6369C77.4879 34.8907 77.5423 35.163 77.5423 35.4381C77.5423 35.7131 77.4879 35.9854 77.3821 36.2393C77.2763 36.4931 77.1213 36.7236 76.9261 36.9172L56.0927 57.7506C55.8846 57.9873 55.6281 58.1767 55.3406 58.3061C55.0532 58.4354 54.7413 58.5018 54.4261 58.5006Z" fill="#FF4343"/>
<path d="M75.5926 37.5006C75.0362 37.506 74.4991 37.2971 74.0926 36.9173L70.5092 33.2923C70.1275 32.9028 69.9137 32.3793 69.9137 31.8339C69.9137 31.2886 70.1275 30.765 70.5092 30.3756C70.7029 30.1803 70.9333 30.0254 71.1872 29.9196C71.4411 29.8138 71.7134 29.7594 71.9884 29.7594C72.2634 29.7594 72.5357 29.8138 72.7896 29.9196C73.0435 30.0254 73.2739 30.1803 73.4676 30.3756L75.5926 32.5006L83.0926 24.9589L75.5926 17.4589L68.0509 24.9589L70.1759 27.0839C70.5576 27.4734 70.7714 27.997 70.7714 28.5423C70.7714 29.0876 70.5576 29.6112 70.1759 30.0006C69.9822 30.1959 69.7518 30.3509 69.4979 30.4566C69.2441 30.5624 68.9718 30.6169 68.6967 30.6169C68.4217 30.6169 68.1494 30.5624 67.8955 30.4566C67.6417 30.3509 67.4113 30.1959 67.2176 30.0006L63.6342 26.4173C63.4341 26.2312 63.2751 26.0054 63.1674 25.7542C63.0598 25.5031 63.0059 25.2322 63.0092 24.9589C63.0052 24.6794 63.0586 24.4021 63.1661 24.1441C63.2736 23.8861 63.4329 23.6529 63.6342 23.4589L74.0926 13.0423C74.2862 12.847 74.5167 12.692 74.7705 12.5862C75.0244 12.4805 75.2967 12.426 75.5717 12.426C75.8468 12.426 76.1191 12.4805 76.3729 12.5862C76.6268 12.692 76.8572 12.847 77.0509 13.0423L87.5092 23.4589C87.8936 23.8554 88.1086 24.3859 88.1086 24.9381C88.1086 25.4903 87.8936 26.0208 87.5092 26.4173L77.0509 36.9173C76.6595 37.2945 76.1362 37.5039 75.5926 37.5006Z" fill="#FF4343"/>
</svg>
