<svg width="100" height="102" viewBox="0 0 100 102" fill="none" xmlns="http://www.w3.org/2000/svg">
<path d="M49.2999 90.2278C38.8017 90.2278 28.7336 85.9995 21.3102 78.473C13.8869 70.9466 9.71655 60.7386 9.71655 50.0947C9.71655 39.4507 13.8869 29.2427 21.3102 21.7163C28.7336 14.1898 38.8017 9.96155 49.2999 9.96155C49.8524 9.96155 50.3823 10.1841 50.773 10.5802C51.1637 10.9763 51.3832 11.5136 51.3832 12.0738C51.3832 12.634 51.1637 13.1713 50.773 13.5674C50.3823 13.9635 49.8524 14.1861 49.2999 14.1861C43.4568 14.151 37.6959 15.5822 32.5307 18.3521C27.3656 21.122 22.9566 25.1447 19.6968 30.0614C16.437 34.9782 14.4277 40.6363 13.848 46.5314C13.2682 52.4265 14.1361 58.3755 16.3742 63.848C18.6123 69.3205 22.1511 74.1466 26.6752 77.8961C31.1993 81.6455 36.568 84.2018 42.3029 85.3371C48.0378 86.4724 53.9607 86.1514 59.5435 84.4028C65.1264 82.6541 70.1958 79.5322 74.2999 75.3151C74.4851 75.0928 74.7137 74.9117 74.9713 74.7831C75.2288 74.6545 75.5098 74.5814 75.7966 74.5681C76.0833 74.5549 76.3697 74.6018 76.6377 74.7061C76.9058 74.8104 77.1496 74.9697 77.3541 75.174C77.5585 75.3784 77.719 75.6233 77.8257 75.8936C77.9323 76.1638 77.9827 76.4535 77.9737 76.7444C77.9647 77.0353 77.8965 77.3212 77.7734 77.5841C77.6503 77.8471 77.4749 78.0814 77.2582 78.2723C73.6152 82.0485 69.2664 85.0506 64.466 87.1033C59.6656 89.1561 54.5098 90.2182 49.2999 90.2278Z" fill="#FF4343"/>
<path d="M48.0496 63.6131C47.7794 63.6219 47.5104 63.5739 47.2594 63.4721C47.0084 63.3703 46.7809 63.2169 46.5913 63.0216L29.9246 46.1235C29.7293 45.9271 29.5743 45.6935 29.4686 45.4361C29.3628 45.1787 29.3083 44.9026 29.3083 44.6238C29.3083 44.3449 29.3628 44.0688 29.4686 43.8114C29.5743 43.554 29.7293 43.3204 29.9246 43.1241C30.3211 42.7343 30.8516 42.5164 31.4038 42.5164C31.956 42.5164 32.4865 42.7343 32.8829 43.1241L48.0496 58.5436L82.0079 24.1136C82.4002 23.7159 82.9323 23.4924 83.4871 23.4924C84.0419 23.4924 84.574 23.7159 84.9663 24.1136C85.3586 24.5114 85.579 25.0508 85.579 25.6133C85.579 26.1758 85.3586 26.7153 84.9663 27.1131L49.5496 63.0216C49.3507 63.2161 49.1157 63.3686 48.8582 63.4701C48.6007 63.5717 48.3258 63.6203 48.0496 63.6131Z" fill="#FF4343"/>
</svg>
